<svg width="41" height="16" viewBox="0 0 41 16" fill="none" xmlns="http://www.w3.org/2000/svg">
<path d="M17.7016 3.17696V2.27832H14.3462V6.53232H17.7016V5.63377H15.3646V4.79466H17.6416V3.95582H15.3646V3.17696H17.7016Z" fill="#868487"/>
<path d="M23.9947 2.27832H22.9761V6.47297H23.9947V2.27832Z" fill="#868487"/>
<path d="M34.2398 11.4455C34.0001 11.206 33.6406 11.0861 33.1015 11.0861H32.5621C32.4423 11.0861 32.3228 11.0861 32.2026 11.026C32.0828 10.9666 31.9633 10.9066 31.9633 10.7268C31.9633 10.6071 31.9633 10.4871 32.0828 10.4271C32.2026 10.3671 32.3228 10.3671 32.5024 10.3671H34.3596V9.34863H32.3825C31.3036 9.34863 30.9443 10.0078 30.9443 10.6071C30.9443 11.9251 32.0828 11.8652 33.0415 11.9251C33.2211 11.9251 33.3412 11.9852 33.4012 12.045C33.4611 12.1051 33.5207 12.2244 33.5207 12.3444C33.5207 12.4644 33.4611 12.584 33.4012 12.644C33.2813 12.764 33.161 12.764 32.9817 12.764H31.064V13.6627H32.9817C34 13.6627 34.5395 13.243 34.5395 12.3443C34.5395 11.925 34.4196 11.6253 34.2398 11.4455Z" fill="#868487"/>
<path d="M38.4758 12.1293C38.3527 11.488 37.8033 11.2421 37.6374 11.1821C37.4561 11.1184 37.2581 11.0861 36.9961 11.0861H36.5168H36.4572C36.3372 11.0861 36.2173 11.0861 36.0978 11.026C35.9177 10.9666 35.8576 10.9066 35.8576 10.7268C35.8576 10.6071 35.9177 10.4871 35.9779 10.4271C36.0977 10.3671 36.2173 10.3671 36.3974 10.3671H36.4573H36.9365H38.2548V9.34863H36.2775C36.1664 9.34863 36.0648 9.35726 35.9685 9.37052C35.1649 9.52331 34.8394 10.0376 34.8394 10.6072C34.8394 11.9252 35.978 11.8653 36.9365 11.9252C37.1162 11.9252 37.2358 11.9853 37.2958 12.0451C37.3558 12.1051 37.4157 12.2245 37.4157 12.3445C37.4157 12.4645 37.3557 12.5841 37.2958 12.6441C37.1763 12.7641 37.0562 12.7641 36.8762 12.7641H34.9594V13.6628H36.8762C37.4758 13.6628 37.8955 13.483 38.1348 13.2431C38.3745 13.0037 38.4941 12.7041 38.4941 12.3444C38.4941 12.2666 38.4865 12.1966 38.4758 12.1293Z" fill="#868487"/>
<path d="M30.4653 10.3068V9.4082H27.1099V13.6625H30.4653V12.7637H28.1282V11.9249H30.4053V11.0858H28.1282V10.3068H30.4653Z" fill="#868487"/>
<path d="M11.9498 2.27841L10.7514 5.15442L10.7322 5.21653L10.1893 3.98377L9.43332 2.33838H9.4311L9.40289 2.27832H8.17484H7.81543V6.29278L6.13784 2.27841H4.6399L2.86719 6.47288H3.92039L4.14089 6.00029L4.33985 5.57407H6.37738L6.79685 6.47288H8.83393V3.17705L10.2719 6.47279H10.7904V6.47288H11.1108H11.155L12.5489 3.31301V3.31462L12.6089 3.17714V6.11357V6.47288H12.9683H13.5677V2.27841H11.9498V2.27841ZM4.69952 4.67498L5.3588 2.9973L6.0178 4.67498H4.69952Z" fill="#868487"/>
<path d="M34.6595 2.33829V5.27419L32.9219 2.33829H31.4241V4.67498V4.79466V6.148V6.35276L30.9824 5.29573L29.7461 2.33821H28.8475H28.2482L27.0111 5.29662L26.8699 5.63386H26.4505C26.1511 5.63386 25.9115 5.57389 25.7315 5.39388C25.4921 5.15425 25.432 4.85473 25.432 4.37529C25.432 3.95591 25.5518 3.59642 25.7315 3.41686C25.9715 3.23684 26.1511 3.17705 26.5106 3.17705H27.3847H27.4694V2.9795V2.27832H26.5106C25.8517 2.2785 25.3122 2.398 25.0128 2.75776C24.5931 3.23693 24.4736 3.8365 24.4736 4.43571C24.4736 5.21458 24.6531 5.69393 25.0128 6.05342C25.3722 6.41273 25.9717 6.53241 26.4507 6.53241H27.5893L27.9488 5.57398H30.0461L30.2207 6.01053L30.4056 6.47279H31.4241V6.47528H32.4364V5.92706L32.4426 5.93329V3.29682L34.3599 6.4727H35.6783V2.33829H34.6595ZM28.3083 4.67498L29.0272 2.9973L29.6867 4.67498H28.3083V4.67498Z" fill="#868487"/>
<path d="M22.2539 5.52593C22.2539 5.52263 22.2535 5.51979 22.2535 5.5164C22.2532 5.51071 22.2527 5.5051 22.2525 5.49941C22.2517 5.45349 22.2492 5.41007 22.2452 5.36825C22.2441 5.35695 22.2425 5.34645 22.2412 5.33533C22.2376 5.30454 22.2335 5.27428 22.2282 5.24563C22.2263 5.23575 22.2242 5.22632 22.2224 5.21662C22.2162 5.18664 22.2092 5.15772 22.2014 5.13013C22.1997 5.12408 22.1981 5.11812 22.1963 5.11216C22.1864 5.07923 22.1757 5.04782 22.1639 5.01828C22.1291 4.93134 22.0865 4.85775 22.0401 4.7968C22.0236 4.77376 22.0041 4.74982 21.9814 4.72579C21.9797 4.72446 21.9777 4.72348 21.9762 4.72214C21.7967 4.53564 21.597 4.49533 21.597 4.49533C21.8913 4.37734 22.3006 4.02746 22.3146 3.3898C22.3076 2.92683 22.1304 2.63434 21.8367 2.45807C21.537 2.27832 21.1773 2.27832 20.6384 2.27832H18.3613V5.15202V6.47288H19.3797V5.57496H19.3796V4.97512H20.4584C20.7408 4.97512 20.9114 4.9761 21.0011 5.03421C21.0632 5.06064 21.1206 5.0981 21.1772 5.15469C21.2526 5.25515 21.2954 5.3767 21.3209 5.50163C21.3209 5.50172 21.3209 5.50172 21.3209 5.50181C21.3472 5.63146 21.3549 5.76396 21.3565 5.88123C21.3565 5.88177 21.3565 5.88239 21.3565 5.88293C21.357 5.92154 21.3573 5.95909 21.3573 5.99353V6.47306H22.2559V5.63422C22.2559 5.59774 22.2549 5.5641 22.2537 5.53109C22.2537 5.52922 22.2539 5.5278 22.2539 5.52593ZM21.1682 3.96134C21.1549 3.98563 21.1387 4.00681 21.1214 4.0255C21.1133 4.03484 21.1074 4.04125 21.1074 4.04125L21.1071 4.04045C21.0919 4.05442 21.0756 4.06696 21.0576 4.07604C20.9377 4.1361 20.7579 4.1361 20.5782 4.1361H19.3796V3.17723H20.5782C20.7579 3.17723 20.9377 3.17722 21.0576 3.23702C21.1339 3.27537 21.2099 3.33837 21.2397 3.44106L21.24 3.44097C21.2415 3.44586 21.2413 3.45005 21.2424 3.45485C21.2465 3.47229 21.2499 3.49018 21.2514 3.50949C21.2849 3.72064 21.2226 3.87521 21.1682 3.96134Z" fill="#868487"/>
<path d="M40.6518 12.4642C40.6518 11.9612 40.545 11.444 40.3523 10.9899V8.6292C40.3523 8.59939 40.3513 8.56958 40.3497 8.54013V8.44919C40.3497 7.65466 39.7055 7.01051 38.911 7.01051H38.0154V1.43867C38.0154 0.644147 37.3714 0 36.5768 0H33.8802C33.8191 0 33.759 0.00382626 33.7 0.0111229C33.641 0.00373728 33.5813 0 33.5207 0H30.7048C30.6436 0 30.5836 0.00382626 30.5246 0.0111229C30.4656 0.00382626 30.4056 0 30.3451 0H26.5103C26.1098 0 25.7332 0.0351489 25.3766 0.106335C25.2088 0.0377294 25.0252 0 24.8325 0H22.1361C21.9861 0 21.8413 0.0230465 21.7051 0.0655803C21.48 0.0219787 21.244 0 20.9977 0H11.3508C11.1167 0 10.8915 0.0568611 10.6917 0.159903C10.4918 0.0567721 10.2666 0 10.0325 0H7.87534H6.97653C6.92581 0 6.87571 0.002581 6.82633 0.007742C6.77703 0.002581 6.72711 0 6.67692 0H6.61695H4.04054C3.46375 0 2.94258 0.344542 2.71674 0.875324L1.52428 3.67748L0.152615 6.71936C0.147631 6.73022 0.142826 6.74134 0.138199 6.75237L0.112839 6.81244C-0.0742917 7.25664 -0.0265079 7.76509 0.240085 8.16667C0.506588 8.56816 0.956663 8.80957 1.43868 8.80957H1.46404H4.51998H4.55824C4.83329 8.80957 5.09508 8.73135 5.31807 8.59254C5.54124 8.73135 5.80302 8.80957 6.07789 8.80957H8.35416V9.10267V14.5015C8.35416 15.2961 8.99822 15.9402 9.79284 15.9402H15.0657C15.3561 15.9402 15.6375 15.8524 15.8745 15.6914C16.1107 15.8519 16.3919 15.9402 16.6832 15.9402H16.7433H19.7815H19.9193H19.9792H20.0389C20.3338 15.9402 20.608 15.8515 20.8362 15.6992C21.0796 15.8878 21.3852 16 21.7167 16H24.4133C24.4639 16 24.5138 15.9974 24.5631 15.9923C24.6124 15.9974 24.6621 16 24.7128 16H32.8617C33.0927 16 33.4121 15.9836 33.7592 15.9178C33.9094 15.971 34.0713 16 34.2399 16H36.8164C37.4196 16 38.3003 15.9455 39.0222 15.4787C39.9544 14.9074 40.5407 13.9324 40.6372 12.7938C40.6406 12.7667 40.6435 12.7397 40.646 12.7123C40.6513 12.6529 40.653 12.5936 40.6509 12.5347C40.6514 12.5122 40.6518 12.4888 40.6518 12.4642ZM9.55294 6.65164V7.03205V7.31056V7.37062H8.84285H6.07789L5.7184 6.41192H4.93945L4.57987 7.31056L4.55815 7.37062H4.51989H1.46404H1.43868L1.46404 7.31056L2.84203 4.25471L4.04054 1.43859H6.61695H6.67692L6.97653 2.15766V1.43859H7.87534H10.0325L10.6915 2.93661L11.3509 1.43859H20.9978C21.4773 1.43859 21.8367 1.55853 22.1363 1.79817V1.49856V1.43859H24.8327V1.79817C25.3119 1.55853 25.8514 1.43859 26.5105 1.43859H30.3451L30.7048 2.15766V1.43859H33.5207L33.8802 2.15766V1.43859H36.5767V7.01042V7.31065H33.9402H33.8802H33.7607L33.2212 6.41201V6.71153V7.01042V7.31065H29.7457L29.3862 6.35222H28.5476L28.1881 7.31065H26.3904C25.6713 7.31065 25.1323 7.13117 24.7726 6.95116V7.01042V7.31065H20.4584V7.01158V5.99246C20.4584 5.81263 20.4584 5.81263 20.3387 5.81263H20.2189V7.01042V7.37071H20.1588H13.268H11.8899V7.31065V7.01042V6.65173L11.5904 7.37071H9.8529L9.55294 6.65164ZM39.2057 12.6457C39.154 13.3446 38.8063 13.9303 38.2546 14.2614C37.8953 14.5013 37.3556 14.5611 36.8165 14.5611H34.2398V14.4409V14.2012C33.9401 14.4409 33.4011 14.561 32.8616 14.561H24.7127V14.4408V13.1827C24.7127 13.003 24.7127 13.003 24.5328 13.003H24.4133V14.4408V14.561H21.7167V14.4408V12.943C21.2975 13.123 20.7579 13.123 20.3387 13.123H20.0389V13.902V14.5012H19.9792H19.9193H19.7815H18.9166H17.3295H16.7434H16.6833L15.9323 13.6345L15.0658 14.5012H9.79292V9.10232V8.80618V8.62902V8.44901H14.5264H14.9346H15.1855L15.9645 9.34791L16.8035 8.44901H20.3983C20.7326 8.44901 21.3778 8.50115 21.7073 8.74924C21.7073 8.74924 21.7073 8.74924 21.7074 8.74924C21.7322 8.76792 21.7556 8.78741 21.7766 8.80841V8.74924V8.62902V8.44901H25.0124C25.3117 8.44901 25.9712 8.50907 26.3306 8.80841V8.74772V8.62911V8.4491H31.2437V8.74933V8.8085C31.4838 8.56913 32.0228 8.4491 32.4422 8.4491H35.1986V8.74933V8.8085C35.1986 8.8085 35.2004 8.80698 35.204 8.80432C35.2042 8.80414 35.2044 8.80396 35.2045 8.80387C35.2156 8.79542 35.2417 8.77575 35.2791 8.74977C35.2793 8.74959 35.2795 8.7495 35.2796 8.74941C35.4266 8.64744 35.7479 8.44919 36.0256 8.44919C36.1981 8.44919 36.8271 8.44919 37.4539 8.44919C38.1839 8.44919 38.9109 8.44919 38.9109 8.44919V8.6292H38.9134V11.3255C39.0933 11.625 39.213 12.0445 39.213 12.464C39.213 12.5032 39.2113 12.5416 39.2094 12.5802L39.213 12.5837C39.2112 12.6043 39.2082 12.6251 39.2057 12.6457Z" fill="#868487"/>
<path d="M22.0265 10.248C21.7652 9.62091 21.0751 9.46875 20.4585 9.46875H17.2829L16.0245 10.8467L15.9941 10.8782L15.7704 10.6342L14.7063 9.46875H10.8115V13.663H14.6463L15.9644 12.2847L16.0203 12.3491L16.0243 12.3447L17.1706 13.663H19.14V13.0039H19.1401V12.6443V12.2846V12.1052H20.3386C21.2371 12.1052 22.0761 11.8653 22.0761 10.667C22.0761 10.5102 22.0578 10.3722 22.0265 10.248ZM14.1672 12.8242H11.7106V11.9252H12.2504H13.9276V11.0862H12.2504H11.7106V10.3071H14.2271L15.3057 11.5656L14.1672 12.8242ZM18.1219 13.303L16.5639 11.5656L18.1219 9.88777V13.303V13.303ZM20.4586 11.3858H19.1403V10.3072H20.3984C20.7581 10.3072 20.9979 10.4872 21.0579 10.8467C21.0579 11.206 20.8181 11.3858 20.4586 11.3858Z" fill="#868487"/>
<path d="M26.5052 12.6668C26.5038 12.644 26.5024 12.6216 26.5005 12.5999C26.4989 12.5838 26.4975 12.568 26.4957 12.5524C26.4938 12.5356 26.4916 12.5195 26.4894 12.5034C26.487 12.4859 26.4846 12.4682 26.4818 12.4516C26.4804 12.4435 26.4786 12.436 26.4771 12.4282C26.4635 12.3571 26.4462 12.2922 26.4242 12.2332C26.4231 12.2305 26.4221 12.2274 26.421 12.2247C26.4132 12.2041 26.4049 12.1841 26.3961 12.1648C26.3764 12.1221 26.355 12.0818 26.3304 12.0447C26.2704 11.9248 26.0906 11.8046 25.7909 11.6852C26.0907 11.5652 26.5101 11.2057 26.5101 10.5467C26.5101 10.0674 26.2704 9.76769 25.9709 9.58777C25.671 9.4082 25.2516 9.4082 24.7724 9.4082H22.5033H22.4956V9.41657V12.2759V13.6626H23.5141V12.7613V12.1047H24.5926C24.9521 12.1047 25.1921 12.1047 25.3116 12.2841C25.4916 12.4641 25.4916 12.8833 25.4916 13.1234V13.6626H26.5101V12.8239C26.5101 12.7833 26.5089 12.7447 26.5075 12.7069C26.5068 12.6932 26.506 12.6801 26.5052 12.6668ZM25.4314 10.8462C25.4314 11.0256 25.3714 11.2056 25.2516 11.2656C25.1321 11.3256 24.9521 11.3256 24.7724 11.3256H23.5739V10.3667H24.7724C24.9521 10.3667 25.1321 10.3667 25.2516 10.4267C25.3715 10.4868 25.4915 10.6068 25.4314 10.8462Z" fill="#868487"/>
</svg>
