<svg width="40" height="40" viewBox="0 0 40 40" fill="none" xmlns="http://www.w3.org/2000/svg">
<rect width="40" height="40" rx="5" fill="#1564BE"/>
<g clip-path="url(#clip0_1123_32)">
<path d="M12.8916 31.0233H7.58401V13.9312H12.8916V31.0233ZM10.235 11.5997C8.53776 11.5997 7.16113 10.1939 7.16113 8.49669C7.16113 7.68146 7.48498 6.89961 8.06144 6.32316C8.6379 5.7467 9.41974 5.42285 10.235 5.42285C11.0502 5.42285 11.832 5.7467 12.4085 6.32316C12.985 6.89961 13.3088 7.68146 13.3088 8.49669C13.3088 10.1939 11.9316 11.5997 10.235 11.5997ZM32.7564 31.0233H27.4602V22.703C27.4602 20.72 27.4202 18.1771 24.7007 18.1771C21.9412 18.1771 21.5183 20.3314 21.5183 22.5601V31.0233H16.2164V13.9312H21.3068V16.2627H21.3811C22.0897 14.9198 23.8207 13.5026 26.403 13.5026C31.7747 13.5026 32.7622 17.0399 32.7622 21.6344V31.0233H32.7564Z" fill="white"/>
</g>
<defs>
<clipPath id="clip0_1123_32">
<rect width="25.601" height="29.2583" fill="white" transform="translate(7.16113 5.42236)"/>
</clipPath>
</defs>
</svg>
