<svg width="40" height="40" viewBox="0 0 40 40" fill="none" xmlns="http://www.w3.org/2000/svg">
<rect width="40" height="40" rx="5" fill="#D71F19"/>
<g clip-path="url(#clip0_1123_31)">
<path d="M20.7192 5.09473C14.5691 5.09473 8.49097 9.18708 8.49097 15.8102C8.49097 20.0223 10.8647 22.4154 12.3033 22.4154C12.8967 22.4154 13.2384 20.7641 13.2384 20.2975C13.2384 19.7411 11.8178 18.5564 11.8178 16.241C11.8178 11.4307 15.4863 8.0204 20.2337 8.0204C24.3158 8.0204 27.3369 10.3358 27.3369 14.5897C27.3369 17.7667 26.0601 23.7257 21.9241 23.7257C20.4315 23.7257 19.1547 22.6488 19.1547 21.1052C19.1547 18.8436 20.7372 16.6538 20.7372 14.3205C20.7372 10.3597 15.1086 11.0777 15.1086 15.8641C15.1086 16.8692 15.2345 17.9821 15.6841 18.8975C14.8569 22.4513 13.1665 27.7463 13.1665 31.4079C13.1665 32.5386 13.3283 33.6515 13.4362 34.7823C13.64 35.0096 13.5381 34.9857 13.8498 34.872C16.8709 30.7438 16.763 29.9361 18.1297 24.5334C18.867 25.9334 20.7732 26.6873 22.2837 26.6873C28.6496 26.6873 31.5089 20.4949 31.5089 14.9128C31.5089 8.9717 26.3658 5.09473 20.7192 5.09473Z" fill="white"/>
</g>
<defs>
<clipPath id="clip0_1123_31">
<rect width="23.0179" height="30.6328" fill="white" transform="translate(8.49097 4.70605)"/>
</clipPath>
</defs>
</svg>
