<svg width="40" height="40" viewBox="0 0 40 40" fill="none" xmlns="http://www.w3.org/2000/svg">
<rect width="40" height="40" rx="5" fill="#50AFEC"/>
<g clip-path="url(#clip0_1123_22)">
<path d="M31.4185 14.1448C31.4368 14.4002 31.4368 14.6556 31.4368 14.9109C31.4368 22.6995 25.5087 31.6738 14.6739 31.6738C11.3359 31.6738 8.23509 30.707 5.62671 29.029C6.10098 29.0837 6.55694 29.1019 7.04945 29.1019C9.8037 29.1019 12.3391 28.1717 14.3638 26.5848C11.7737 26.53 9.60309 24.8337 8.85522 22.4989C9.22006 22.5536 9.58484 22.5901 9.96793 22.5901C10.4969 22.5901 11.0259 22.5171 11.5183 22.3895C8.81878 21.8422 6.79404 19.471 6.79404 16.6073V16.5343C7.57835 16.9721 8.49044 17.2457 9.45711 17.2821C7.87019 16.2242 6.83054 14.4184 6.83054 12.3755C6.83054 11.2811 7.12233 10.2779 7.63309 9.40232C10.5333 12.9774 14.8928 15.3121 19.7811 15.5676C19.69 15.1298 19.6352 14.6738 19.6352 14.2178C19.6352 10.971 22.2618 8.32617 25.5269 8.32617C27.2232 8.32617 28.7554 9.03754 29.8316 10.1867C31.1631 9.93133 32.4399 9.43882 33.5708 8.76394C33.133 10.132 32.2028 11.2811 30.9807 12.0107C32.1664 11.8831 33.3155 11.5547 34.3734 11.0987C33.571 12.2661 32.5677 13.3057 31.4185 14.1448V14.1448Z" fill="white"/>
</g>
<defs>
<clipPath id="clip0_1123_22">
<rect width="28.7468" height="28.7468" fill="white" transform="translate(5.62671 5.62646)"/>
</clipPath>
</defs>
</svg>
